<mxfile host="Electron" agent="Mozilla/5.0 (Windows NT 10.0; Win64; x64) AppleWebKit/537.36 (KHTML, like Gecko) draw.io/26.1.1 Chrome/132.0.6834.210 Electron/34.3.3 Safari/537.36" version="26.1.1">
  <diagram name="Page-1" id="h8whVq3Algx0YeDTYMTF">
    <mxGraphModel dx="1434" dy="884" grid="1" gridSize="10" guides="1" tooltips="1" connect="1" arrows="1" fold="1" page="1" pageScale="1" pageWidth="1169" pageHeight="827" math="0" shadow="0">
      <root>
        <mxCell id="0" />
        <mxCell id="1" parent="0" />
        <mxCell id="hvQLJuFYrz7OQ_QRDkpE-1" value="Azure OAuth2.0" style="rounded=1;whiteSpace=wrap;html=1;fillColor=#0050ef;fontColor=#ffffff;strokeColor=#001DBC;" parent="1" vertex="1">
          <mxGeometry x="80" y="260" width="120" height="60" as="geometry" />
        </mxCell>
        <mxCell id="hvQLJuFYrz7OQ_QRDkpE-2" value="Request" style="rounded=1;whiteSpace=wrap;html=1;fillColor=#60a917;strokeColor=#2D7600;fontColor=#ffffff;" parent="1" vertex="1">
          <mxGeometry x="80" y="160" width="120" height="60" as="geometry" />
        </mxCell>
        <mxCell id="hvQLJuFYrz7OQ_QRDkpE-7" value="Business Central" style="rounded=1;whiteSpace=wrap;html=1;fillColor=#0050ef;fontColor=#ffffff;strokeColor=#001DBC;" parent="1" vertex="1">
          <mxGeometry x="240" y="20" width="120" height="60" as="geometry" />
        </mxCell>
        <mxCell id="hvQLJuFYrz7OQ_QRDkpE-8" value="" style="endArrow=classic;html=1;rounded=0;entryX=0.25;entryY=0;entryDx=0;entryDy=0;exitX=0.25;exitY=1;exitDx=0;exitDy=0;flowAnimation=0;" parent="1" source="hvQLJuFYrz7OQ_QRDkpE-2" target="hvQLJuFYrz7OQ_QRDkpE-1" edge="1">
          <mxGeometry width="50" height="50" relative="1" as="geometry">
            <mxPoint x="10" y="220" as="sourcePoint" />
            <mxPoint x="60" y="170" as="targetPoint" />
          </mxGeometry>
        </mxCell>
        <mxCell id="hvQLJuFYrz7OQ_QRDkpE-9" value="" style="endArrow=classic;html=1;rounded=1;exitX=0.75;exitY=0;exitDx=0;exitDy=0;entryX=0.75;entryY=1;entryDx=0;entryDy=0;strokeWidth=1;flowAnimation=0;edgeStyle=orthogonalEdgeStyle;curved=0;" parent="1" source="hvQLJuFYrz7OQ_QRDkpE-1" target="hvQLJuFYrz7OQ_QRDkpE-2" edge="1">
          <mxGeometry width="50" height="50" relative="1" as="geometry">
            <mxPoint x="320" y="370" as="sourcePoint" />
            <mxPoint x="370" y="320" as="targetPoint" />
          </mxGeometry>
        </mxCell>
        <mxCell id="hvQLJuFYrz7OQ_QRDkpE-10" value="Process" style="rounded=1;whiteSpace=wrap;html=1;fillColor=#60a917;strokeColor=#2D7600;fontColor=#ffffff;" parent="1" vertex="1">
          <mxGeometry x="240" y="160" width="120" height="60" as="geometry" />
        </mxCell>
        <mxCell id="hvQLJuFYrz7OQ_QRDkpE-13" value="" style="endArrow=classic;html=1;rounded=1;exitX=0;exitY=0.5;exitDx=0;exitDy=0;entryX=0.5;entryY=0;entryDx=0;entryDy=0;strokeWidth=1;flowAnimation=0;edgeStyle=orthogonalEdgeStyle;curved=0;" parent="1" source="hvQLJuFYrz7OQ_QRDkpE-7" target="hvQLJuFYrz7OQ_QRDkpE-2" edge="1">
          <mxGeometry width="50" height="50" relative="1" as="geometry">
            <mxPoint x="210" y="160" as="sourcePoint" />
            <mxPoint x="270" y="90" as="targetPoint" />
          </mxGeometry>
        </mxCell>
        <mxCell id="vC-8lLc8zRi-vhcm7Vdf-3" value="Trigger Function" style="edgeLabel;html=1;align=center;verticalAlign=middle;resizable=0;points=[];" vertex="1" connectable="0" parent="hvQLJuFYrz7OQ_QRDkpE-13">
          <mxGeometry x="-0.2762" y="1" relative="1" as="geometry">
            <mxPoint as="offset" />
          </mxGeometry>
        </mxCell>
        <mxCell id="hvQLJuFYrz7OQ_QRDkpE-14" value="" style="endArrow=classic;html=1;rounded=1;exitX=0.5;exitY=1;exitDx=0;exitDy=0;entryX=0.5;entryY=0;entryDx=0;entryDy=0;strokeWidth=9;flowAnimation=0;edgeStyle=orthogonalEdgeStyle;curved=0;" parent="1" source="hvQLJuFYrz7OQ_QRDkpE-7" target="hvQLJuFYrz7OQ_QRDkpE-10" edge="1">
          <mxGeometry width="50" height="50" relative="1" as="geometry">
            <mxPoint x="220" y="170" as="sourcePoint" />
            <mxPoint x="280" y="100" as="targetPoint" />
          </mxGeometry>
        </mxCell>
        <mxCell id="vC-8lLc8zRi-vhcm7Vdf-2" value="Download" style="edgeLabel;html=1;align=center;verticalAlign=middle;resizable=0;points=[];" vertex="1" connectable="0" parent="hvQLJuFYrz7OQ_QRDkpE-14">
          <mxGeometry x="-0.24" y="-3" relative="1" as="geometry">
            <mxPoint as="offset" />
          </mxGeometry>
        </mxCell>
        <mxCell id="hvQLJuFYrz7OQ_QRDkpE-15" value="Confirmation" style="rounded=1;whiteSpace=wrap;html=1;fillColor=#60a917;fontColor=#ffffff;strokeColor=#2D7600;" parent="1" vertex="1">
          <mxGeometry x="450" y="20" width="120" height="60" as="geometry" />
        </mxCell>
        <mxCell id="hvQLJuFYrz7OQ_QRDkpE-16" value="PreAdvice" style="rounded=1;whiteSpace=wrap;html=1;fillColor=#60a917;fontColor=#ffffff;strokeColor=#2D7600;" parent="1" vertex="1">
          <mxGeometry x="450" y="100" width="120" height="60" as="geometry" />
        </mxCell>
        <mxCell id="hvQLJuFYrz7OQ_QRDkpE-17" value="Delviery" style="rounded=1;whiteSpace=wrap;html=1;fillColor=#60a917;fontColor=#ffffff;strokeColor=#2D7600;" parent="1" vertex="1">
          <mxGeometry x="450" y="180" width="120" height="60" as="geometry" />
        </mxCell>
        <mxCell id="hvQLJuFYrz7OQ_QRDkpE-18" value="Invoice" style="rounded=1;whiteSpace=wrap;html=1;fillColor=#60a917;fontColor=#ffffff;strokeColor=#2D7600;" parent="1" vertex="1">
          <mxGeometry x="450" y="260" width="120" height="60" as="geometry" />
        </mxCell>
        <mxCell id="hvQLJuFYrz7OQ_QRDkpE-19" value="Invoice PDF" style="rounded=1;whiteSpace=wrap;html=1;fillColor=#60a917;fontColor=#ffffff;strokeColor=#2D7600;" parent="1" vertex="1">
          <mxGeometry x="450" y="340" width="120" height="60" as="geometry" />
        </mxCell>
        <mxCell id="hvQLJuFYrz7OQ_QRDkpE-20" value="" style="endArrow=classic;html=1;rounded=1;entryX=0;entryY=0.5;entryDx=0;entryDy=0;exitX=1;exitY=0.5;exitDx=0;exitDy=0;flowAnimation=0;edgeStyle=orthogonalEdgeStyle;curved=0;" parent="1" source="hvQLJuFYrz7OQ_QRDkpE-10" target="hvQLJuFYrz7OQ_QRDkpE-15" edge="1">
          <mxGeometry width="50" height="50" relative="1" as="geometry">
            <mxPoint x="10" y="160" as="sourcePoint" />
            <mxPoint x="90" y="160" as="targetPoint" />
          </mxGeometry>
        </mxCell>
        <mxCell id="hvQLJuFYrz7OQ_QRDkpE-21" value="" style="endArrow=classic;html=1;rounded=1;entryX=0;entryY=0.5;entryDx=0;entryDy=0;flowAnimation=0;exitX=1;exitY=0.5;exitDx=0;exitDy=0;edgeStyle=orthogonalEdgeStyle;curved=0;" parent="1" source="hvQLJuFYrz7OQ_QRDkpE-10" target="hvQLJuFYrz7OQ_QRDkpE-16" edge="1">
          <mxGeometry width="50" height="50" relative="1" as="geometry">
            <mxPoint x="400" y="220" as="sourcePoint" />
            <mxPoint x="460" y="70" as="targetPoint" />
          </mxGeometry>
        </mxCell>
        <mxCell id="hvQLJuFYrz7OQ_QRDkpE-23" value="" style="endArrow=classic;html=1;rounded=1;entryX=0;entryY=0.5;entryDx=0;entryDy=0;exitX=1;exitY=0.5;exitDx=0;exitDy=0;flowAnimation=0;edgeStyle=orthogonalEdgeStyle;curved=0;" parent="1" source="hvQLJuFYrz7OQ_QRDkpE-10" target="hvQLJuFYrz7OQ_QRDkpE-17" edge="1">
          <mxGeometry width="50" height="50" relative="1" as="geometry">
            <mxPoint x="410" y="250" as="sourcePoint" />
            <mxPoint x="480" y="90" as="targetPoint" />
          </mxGeometry>
        </mxCell>
        <mxCell id="hvQLJuFYrz7OQ_QRDkpE-24" value="" style="endArrow=classic;html=1;rounded=1;entryX=0;entryY=0.5;entryDx=0;entryDy=0;exitX=1;exitY=0.5;exitDx=0;exitDy=0;flowAnimation=0;edgeStyle=orthogonalEdgeStyle;curved=0;" parent="1" source="hvQLJuFYrz7OQ_QRDkpE-10" target="hvQLJuFYrz7OQ_QRDkpE-18" edge="1">
          <mxGeometry width="50" height="50" relative="1" as="geometry">
            <mxPoint x="420" y="260" as="sourcePoint" />
            <mxPoint x="490" y="100" as="targetPoint" />
          </mxGeometry>
        </mxCell>
        <mxCell id="hvQLJuFYrz7OQ_QRDkpE-25" value="" style="endArrow=classic;html=1;rounded=1;entryX=0;entryY=0.5;entryDx=0;entryDy=0;exitX=1;exitY=0.5;exitDx=0;exitDy=0;flowAnimation=0;edgeStyle=orthogonalEdgeStyle;curved=0;" parent="1" source="hvQLJuFYrz7OQ_QRDkpE-10" target="hvQLJuFYrz7OQ_QRDkpE-19" edge="1">
          <mxGeometry width="50" height="50" relative="1" as="geometry">
            <mxPoint x="430" y="270" as="sourcePoint" />
            <mxPoint x="500" y="110" as="targetPoint" />
          </mxGeometry>
        </mxCell>
        <mxCell id="hvQLJuFYrz7OQ_QRDkpE-27" value="" style="endArrow=classic;html=1;rounded=1;exitX=1;exitY=0.5;exitDx=0;exitDy=0;strokeWidth=1;flowAnimation=0;edgeStyle=orthogonalEdgeStyle;curved=0;entryX=0;entryY=0.5;entryDx=0;entryDy=0;" parent="1" source="hvQLJuFYrz7OQ_QRDkpE-2" target="hvQLJuFYrz7OQ_QRDkpE-10" edge="1">
          <mxGeometry width="50" height="50" relative="1" as="geometry">
            <mxPoint x="300" y="90" as="sourcePoint" />
            <mxPoint x="210" y="260" as="targetPoint" />
          </mxGeometry>
        </mxCell>
        <mxCell id="hvQLJuFYrz7OQ_QRDkpE-28" value="Export FileServer" style="rounded=1;whiteSpace=wrap;html=1;fillColor=#60a917;fontColor=#ffffff;strokeColor=#2D7600;" parent="1" vertex="1">
          <mxGeometry x="670" y="180" width="120" height="60" as="geometry" />
        </mxCell>
        <mxCell id="hvQLJuFYrz7OQ_QRDkpE-29" value="" style="endArrow=classic;html=1;rounded=1;entryX=0;entryY=0.5;entryDx=0;entryDy=0;exitX=1;exitY=0.5;exitDx=0;exitDy=0;flowAnimation=0;edgeStyle=orthogonalEdgeStyle;curved=0;" parent="1" source="hvQLJuFYrz7OQ_QRDkpE-15" target="hvQLJuFYrz7OQ_QRDkpE-28" edge="1">
          <mxGeometry width="50" height="50" relative="1" as="geometry">
            <mxPoint x="370" y="250" as="sourcePoint" />
            <mxPoint x="460" y="60" as="targetPoint" />
          </mxGeometry>
        </mxCell>
        <mxCell id="hvQLJuFYrz7OQ_QRDkpE-30" value="" style="endArrow=classic;html=1;rounded=1;entryX=0;entryY=0.5;entryDx=0;entryDy=0;exitX=1;exitY=0.5;exitDx=0;exitDy=0;flowAnimation=0;edgeStyle=orthogonalEdgeStyle;curved=0;" parent="1" source="hvQLJuFYrz7OQ_QRDkpE-16" target="hvQLJuFYrz7OQ_QRDkpE-28" edge="1">
          <mxGeometry width="50" height="50" relative="1" as="geometry">
            <mxPoint x="580" y="60" as="sourcePoint" />
            <mxPoint x="680" y="220" as="targetPoint" />
          </mxGeometry>
        </mxCell>
        <mxCell id="hvQLJuFYrz7OQ_QRDkpE-31" value="" style="endArrow=classic;html=1;rounded=1;entryX=0;entryY=0.5;entryDx=0;entryDy=0;exitX=1;exitY=0.5;exitDx=0;exitDy=0;flowAnimation=0;edgeStyle=orthogonalEdgeStyle;curved=0;" parent="1" source="hvQLJuFYrz7OQ_QRDkpE-17" target="hvQLJuFYrz7OQ_QRDkpE-28" edge="1">
          <mxGeometry width="50" height="50" relative="1" as="geometry">
            <mxPoint x="590" y="70" as="sourcePoint" />
            <mxPoint x="690" y="230" as="targetPoint" />
          </mxGeometry>
        </mxCell>
        <mxCell id="hvQLJuFYrz7OQ_QRDkpE-32" value="" style="endArrow=classic;html=1;rounded=1;entryX=0;entryY=0.5;entryDx=0;entryDy=0;exitX=1;exitY=0.5;exitDx=0;exitDy=0;flowAnimation=0;edgeStyle=orthogonalEdgeStyle;curved=0;" parent="1" source="hvQLJuFYrz7OQ_QRDkpE-18" target="hvQLJuFYrz7OQ_QRDkpE-28" edge="1">
          <mxGeometry width="50" height="50" relative="1" as="geometry">
            <mxPoint x="600" y="80" as="sourcePoint" />
            <mxPoint x="700" y="240" as="targetPoint" />
          </mxGeometry>
        </mxCell>
        <mxCell id="hvQLJuFYrz7OQ_QRDkpE-33" value="" style="endArrow=classic;html=1;rounded=1;entryX=0;entryY=0.5;entryDx=0;entryDy=0;exitX=1;exitY=0.5;exitDx=0;exitDy=0;flowAnimation=0;edgeStyle=orthogonalEdgeStyle;curved=0;" parent="1" source="hvQLJuFYrz7OQ_QRDkpE-19" target="hvQLJuFYrz7OQ_QRDkpE-28" edge="1">
          <mxGeometry width="50" height="50" relative="1" as="geometry">
            <mxPoint x="610" y="90" as="sourcePoint" />
            <mxPoint x="710" y="250" as="targetPoint" />
          </mxGeometry>
        </mxCell>
      </root>
    </mxGraphModel>
  </diagram>
</mxfile>
